<mxfile host="app.diagrams.net" modified="2024-02-20T19:22:32.047Z" agent="Mozilla/5.0 (Windows NT 10.0; Win64; x64) AppleWebKit/537.36 (KHTML, like Gecko) Chrome/121.0.0.0 Safari/537.36 Edg/121.0.0.0" etag="-YSrL_ypaoinDoKIDADR" version="23.1.5" type="device">
  <diagram name="Страница — 1" id="JtEqMdeEpSo0Z-aB4rO-">
    <mxGraphModel dx="2656" dy="1738" grid="1" gridSize="10" guides="1" tooltips="1" connect="1" arrows="1" fold="1" page="1" pageScale="1" pageWidth="827" pageHeight="1169" math="0" shadow="0">
      <root>
        <mxCell id="0" />
        <mxCell id="1" parent="0" />
        <mxCell id="F2ssdvDsy-PUlEqvDiPP-3" style="edgeStyle=orthogonalEdgeStyle;rounded=0;orthogonalLoop=1;jettySize=auto;html=1;exitX=1;exitY=0.5;exitDx=0;exitDy=0;" edge="1" parent="1" source="F2ssdvDsy-PUlEqvDiPP-1">
          <mxGeometry relative="1" as="geometry">
            <mxPoint x="-80" y="25" as="targetPoint" />
          </mxGeometry>
        </mxCell>
        <mxCell id="F2ssdvDsy-PUlEqvDiPP-19" style="edgeStyle=orthogonalEdgeStyle;rounded=0;orthogonalLoop=1;jettySize=auto;html=1;exitX=0.5;exitY=0;exitDx=0;exitDy=0;" edge="1" parent="1">
          <mxGeometry relative="1" as="geometry">
            <mxPoint x="-526" y="150" as="targetPoint" />
            <mxPoint x="-526" y="360" as="sourcePoint" />
          </mxGeometry>
        </mxCell>
        <mxCell id="F2ssdvDsy-PUlEqvDiPP-1" value="Онлайн-бронирование гостиницы" style="whiteSpace=wrap;html=1;aspect=fixed;" vertex="1" parent="1">
          <mxGeometry x="-538" y="-100" width="250" height="250" as="geometry" />
        </mxCell>
        <mxCell id="F2ssdvDsy-PUlEqvDiPP-5" value="Активная бронь&amp;nbsp;" style="text;html=1;align=center;verticalAlign=middle;whiteSpace=wrap;rounded=0;" vertex="1" parent="1">
          <mxGeometry x="-250" y="-10" width="150" height="30" as="geometry" />
        </mxCell>
        <mxCell id="F2ssdvDsy-PUlEqvDiPP-7" style="edgeStyle=orthogonalEdgeStyle;rounded=0;orthogonalLoop=1;jettySize=auto;html=1;exitX=1;exitY=0.5;exitDx=0;exitDy=0;" edge="1" parent="1">
          <mxGeometry relative="1" as="geometry">
            <mxPoint x="-538" y="-60" as="targetPoint" />
            <mxPoint x="-746" y="-60" as="sourcePoint" />
          </mxGeometry>
        </mxCell>
        <mxCell id="F2ssdvDsy-PUlEqvDiPP-8" value="Информация о клиентах" style="text;html=1;align=center;verticalAlign=middle;whiteSpace=wrap;rounded=0;" vertex="1" parent="1">
          <mxGeometry x="-710" y="-100" width="150" height="30" as="geometry" />
        </mxCell>
        <mxCell id="F2ssdvDsy-PUlEqvDiPP-9" style="edgeStyle=orthogonalEdgeStyle;rounded=0;orthogonalLoop=1;jettySize=auto;html=1;exitX=1;exitY=0.5;exitDx=0;exitDy=0;" edge="1" parent="1">
          <mxGeometry relative="1" as="geometry">
            <mxPoint x="-538" y="-5.5" as="targetPoint" />
            <mxPoint x="-746" y="-5.5" as="sourcePoint" />
          </mxGeometry>
        </mxCell>
        <mxCell id="F2ssdvDsy-PUlEqvDiPP-10" value="Информация от арендодателей" style="text;html=1;align=center;verticalAlign=middle;whiteSpace=wrap;rounded=0;" vertex="1" parent="1">
          <mxGeometry x="-710" y="-40" width="150" height="30" as="geometry" />
        </mxCell>
        <mxCell id="F2ssdvDsy-PUlEqvDiPP-11" style="edgeStyle=orthogonalEdgeStyle;rounded=0;orthogonalLoop=1;jettySize=auto;html=1;exitX=1;exitY=0.5;exitDx=0;exitDy=0;" edge="1" parent="1">
          <mxGeometry relative="1" as="geometry">
            <mxPoint x="-538" y="50" as="targetPoint" />
            <mxPoint x="-746" y="50" as="sourcePoint" />
          </mxGeometry>
        </mxCell>
        <mxCell id="F2ssdvDsy-PUlEqvDiPP-12" value="Регистрация" style="text;html=1;align=center;verticalAlign=middle;whiteSpace=wrap;rounded=0;" vertex="1" parent="1">
          <mxGeometry x="-710" y="10" width="150" height="30" as="geometry" />
        </mxCell>
        <mxCell id="F2ssdvDsy-PUlEqvDiPP-13" style="edgeStyle=orthogonalEdgeStyle;rounded=0;orthogonalLoop=1;jettySize=auto;html=1;exitX=1;exitY=0.5;exitDx=0;exitDy=0;" edge="1" parent="1">
          <mxGeometry relative="1" as="geometry">
            <mxPoint x="-538" y="110" as="targetPoint" />
            <mxPoint x="-746" y="110" as="sourcePoint" />
          </mxGeometry>
        </mxCell>
        <mxCell id="F2ssdvDsy-PUlEqvDiPP-14" value="Оплата заказа" style="text;html=1;align=center;verticalAlign=middle;whiteSpace=wrap;rounded=0;" vertex="1" parent="1">
          <mxGeometry x="-710" y="70" width="150" height="30" as="geometry" />
        </mxCell>
        <mxCell id="F2ssdvDsy-PUlEqvDiPP-20" style="edgeStyle=orthogonalEdgeStyle;rounded=0;orthogonalLoop=1;jettySize=auto;html=1;exitX=0.5;exitY=0;exitDx=0;exitDy=0;" edge="1" parent="1">
          <mxGeometry relative="1" as="geometry">
            <mxPoint x="-476" y="150" as="targetPoint" />
            <mxPoint x="-476" y="360" as="sourcePoint" />
          </mxGeometry>
        </mxCell>
        <mxCell id="F2ssdvDsy-PUlEqvDiPP-21" style="edgeStyle=orthogonalEdgeStyle;rounded=0;orthogonalLoop=1;jettySize=auto;html=1;exitX=0.5;exitY=0;exitDx=0;exitDy=0;" edge="1" parent="1">
          <mxGeometry relative="1" as="geometry">
            <mxPoint x="-428" y="150" as="targetPoint" />
            <mxPoint x="-428" y="360" as="sourcePoint" />
          </mxGeometry>
        </mxCell>
        <mxCell id="F2ssdvDsy-PUlEqvDiPP-23" value="Администратор" style="text;html=1;align=center;verticalAlign=middle;whiteSpace=wrap;rounded=0;flipV=0;flipH=1;rotation=-90;" vertex="1" parent="1">
          <mxGeometry x="-626" y="240" width="150" height="30" as="geometry" />
        </mxCell>
        <mxCell id="F2ssdvDsy-PUlEqvDiPP-24" value="Бухгалтерия" style="text;html=1;align=center;verticalAlign=middle;whiteSpace=wrap;rounded=0;flipV=0;flipH=1;rotation=-90;" vertex="1" parent="1">
          <mxGeometry x="-576" y="240" width="150" height="30" as="geometry" />
        </mxCell>
        <mxCell id="F2ssdvDsy-PUlEqvDiPP-25" value="Клиент" style="text;html=1;align=center;verticalAlign=middle;whiteSpace=wrap;rounded=0;flipV=0;flipH=1;rotation=-90;" vertex="1" parent="1">
          <mxGeometry x="-521" y="240" width="150" height="30" as="geometry" />
        </mxCell>
        <mxCell id="F2ssdvDsy-PUlEqvDiPP-27" style="edgeStyle=orthogonalEdgeStyle;rounded=0;orthogonalLoop=1;jettySize=auto;html=1;exitX=0.5;exitY=0;exitDx=0;exitDy=0;" edge="1" parent="1">
          <mxGeometry relative="1" as="geometry">
            <mxPoint x="-373" y="150" as="targetPoint" />
            <mxPoint x="-373" y="360" as="sourcePoint" />
          </mxGeometry>
        </mxCell>
        <mxCell id="F2ssdvDsy-PUlEqvDiPP-28" value="Арендодатель" style="text;html=1;align=center;verticalAlign=middle;whiteSpace=wrap;rounded=0;flipV=0;flipH=1;rotation=-90;" vertex="1" parent="1">
          <mxGeometry x="-466" y="240" width="150" height="30" as="geometry" />
        </mxCell>
        <mxCell id="F2ssdvDsy-PUlEqvDiPP-30" style="edgeStyle=orthogonalEdgeStyle;rounded=0;orthogonalLoop=1;jettySize=auto;html=1;exitX=0.5;exitY=0;exitDx=0;exitDy=0;" edge="1" parent="1">
          <mxGeometry relative="1" as="geometry">
            <mxPoint x="-516" y="-100" as="targetPoint" />
            <mxPoint x="-516" y="-310" as="sourcePoint" />
          </mxGeometry>
        </mxCell>
        <mxCell id="F2ssdvDsy-PUlEqvDiPP-31" value="Внутренние правила гостиницы" style="text;html=1;align=center;verticalAlign=middle;whiteSpace=wrap;rounded=0;flipV=0;flipH=1;rotation=-90;" vertex="1" parent="1">
          <mxGeometry x="-616" y="-220" width="150" height="30" as="geometry" />
        </mxCell>
        <mxCell id="F2ssdvDsy-PUlEqvDiPP-32" style="edgeStyle=orthogonalEdgeStyle;rounded=0;orthogonalLoop=1;jettySize=auto;html=1;exitX=0.5;exitY=0;exitDx=0;exitDy=0;" edge="1" parent="1">
          <mxGeometry relative="1" as="geometry">
            <mxPoint x="-462" y="-100" as="targetPoint" />
            <mxPoint x="-462" y="-310" as="sourcePoint" />
          </mxGeometry>
        </mxCell>
        <mxCell id="F2ssdvDsy-PUlEqvDiPP-33" value="Законы страны пребывания" style="text;html=1;align=center;verticalAlign=middle;whiteSpace=wrap;rounded=0;flipV=0;flipH=1;rotation=-90;" vertex="1" parent="1">
          <mxGeometry x="-562" y="-220" width="150" height="30" as="geometry" />
        </mxCell>
        <mxCell id="F2ssdvDsy-PUlEqvDiPP-34" style="edgeStyle=orthogonalEdgeStyle;rounded=0;orthogonalLoop=1;jettySize=auto;html=1;exitX=0.5;exitY=0;exitDx=0;exitDy=0;" edge="1" parent="1">
          <mxGeometry relative="1" as="geometry">
            <mxPoint x="-410" y="-100" as="targetPoint" />
            <mxPoint x="-410" y="-310" as="sourcePoint" />
          </mxGeometry>
        </mxCell>
        <mxCell id="F2ssdvDsy-PUlEqvDiPP-35" value="Требования арендодателей" style="text;html=1;align=center;verticalAlign=middle;whiteSpace=wrap;rounded=0;flipV=0;flipH=1;rotation=-90;" vertex="1" parent="1">
          <mxGeometry x="-510" y="-220" width="150" height="30" as="geometry" />
        </mxCell>
        <mxCell id="F2ssdvDsy-PUlEqvDiPP-37" style="edgeStyle=orthogonalEdgeStyle;rounded=0;orthogonalLoop=1;jettySize=auto;html=1;exitX=0;exitY=0.5;exitDx=0;exitDy=0;" edge="1" parent="1">
          <mxGeometry relative="1" as="geometry">
            <mxPoint x="-707" y="740" as="targetPoint" />
            <mxPoint x="-707" y="740" as="sourcePoint" />
          </mxGeometry>
        </mxCell>
        <mxCell id="F2ssdvDsy-PUlEqvDiPP-38" style="edgeStyle=orthogonalEdgeStyle;rounded=0;orthogonalLoop=1;jettySize=auto;html=1;" edge="1" parent="1">
          <mxGeometry relative="1" as="geometry">
            <mxPoint x="-707" y="739.5" as="targetPoint" />
            <mxPoint x="-850" y="740" as="sourcePoint" />
          </mxGeometry>
        </mxCell>
        <mxCell id="F2ssdvDsy-PUlEqvDiPP-42" style="edgeStyle=orthogonalEdgeStyle;rounded=0;orthogonalLoop=1;jettySize=auto;html=1;exitX=1;exitY=0.5;exitDx=0;exitDy=0;entryX=0;entryY=0.5;entryDx=0;entryDy=0;" edge="1" parent="1" source="F2ssdvDsy-PUlEqvDiPP-36" target="F2ssdvDsy-PUlEqvDiPP-41">
          <mxGeometry relative="1" as="geometry" />
        </mxCell>
        <mxCell id="F2ssdvDsy-PUlEqvDiPP-94" style="edgeStyle=orthogonalEdgeStyle;rounded=0;orthogonalLoop=1;jettySize=auto;html=1;exitX=0.25;exitY=0;exitDx=0;exitDy=0;" edge="1" parent="1">
          <mxGeometry relative="1" as="geometry">
            <mxPoint x="-646.5" y="710.25" as="targetPoint" />
            <mxPoint x="-646.5" y="610" as="sourcePoint" />
          </mxGeometry>
        </mxCell>
        <mxCell id="F2ssdvDsy-PUlEqvDiPP-115" style="edgeStyle=orthogonalEdgeStyle;rounded=0;orthogonalLoop=1;jettySize=auto;html=1;exitX=0.25;exitY=1;exitDx=0;exitDy=0;" edge="1" parent="1">
          <mxGeometry relative="1" as="geometry">
            <mxPoint x="-700" y="770.25" as="targetPoint" />
            <mxPoint x="-700" y="1040" as="sourcePoint" />
          </mxGeometry>
        </mxCell>
        <mxCell id="F2ssdvDsy-PUlEqvDiPP-36" value="Зарегистрировать аккаунт" style="rounded=0;whiteSpace=wrap;html=1;" vertex="1" parent="1">
          <mxGeometry x="-706" y="710.25" width="120" height="60" as="geometry" />
        </mxCell>
        <mxCell id="F2ssdvDsy-PUlEqvDiPP-40" value="Регистрация&amp;nbsp;" style="text;html=1;align=center;verticalAlign=middle;whiteSpace=wrap;rounded=0;" vertex="1" parent="1">
          <mxGeometry x="-850" y="690" width="130" height="30" as="geometry" />
        </mxCell>
        <mxCell id="F2ssdvDsy-PUlEqvDiPP-44" style="edgeStyle=orthogonalEdgeStyle;rounded=0;orthogonalLoop=1;jettySize=auto;html=1;exitX=1;exitY=0.5;exitDx=0;exitDy=0;entryX=0;entryY=0.5;entryDx=0;entryDy=0;" edge="1" parent="1" source="F2ssdvDsy-PUlEqvDiPP-41" target="F2ssdvDsy-PUlEqvDiPP-43">
          <mxGeometry relative="1" as="geometry" />
        </mxCell>
        <mxCell id="F2ssdvDsy-PUlEqvDiPP-41" value="Выбрать гостиницу" style="rounded=0;whiteSpace=wrap;html=1;" vertex="1" parent="1">
          <mxGeometry x="-534" y="790.25" width="120" height="60" as="geometry" />
        </mxCell>
        <mxCell id="F2ssdvDsy-PUlEqvDiPP-46" style="edgeStyle=orthogonalEdgeStyle;rounded=0;orthogonalLoop=1;jettySize=auto;html=1;exitX=1;exitY=0.5;exitDx=0;exitDy=0;entryX=0;entryY=0.5;entryDx=0;entryDy=0;" edge="1" parent="1" source="F2ssdvDsy-PUlEqvDiPP-43" target="F2ssdvDsy-PUlEqvDiPP-45">
          <mxGeometry relative="1" as="geometry" />
        </mxCell>
        <mxCell id="F2ssdvDsy-PUlEqvDiPP-43" value="Забронировать номер" style="rounded=0;whiteSpace=wrap;html=1;" vertex="1" parent="1">
          <mxGeometry x="-366" y="870.25" width="120" height="60" as="geometry" />
        </mxCell>
        <mxCell id="F2ssdvDsy-PUlEqvDiPP-48" style="edgeStyle=orthogonalEdgeStyle;rounded=0;orthogonalLoop=1;jettySize=auto;html=1;exitX=1;exitY=0.5;exitDx=0;exitDy=0;entryX=0;entryY=0.5;entryDx=0;entryDy=0;" edge="1" parent="1" source="F2ssdvDsy-PUlEqvDiPP-45" target="F2ssdvDsy-PUlEqvDiPP-47">
          <mxGeometry relative="1" as="geometry" />
        </mxCell>
        <mxCell id="F2ssdvDsy-PUlEqvDiPP-45" value="Оплатить" style="rounded=0;whiteSpace=wrap;html=1;" vertex="1" parent="1">
          <mxGeometry x="-206" y="940.25" width="120" height="60" as="geometry" />
        </mxCell>
        <mxCell id="F2ssdvDsy-PUlEqvDiPP-114" style="edgeStyle=orthogonalEdgeStyle;rounded=0;orthogonalLoop=1;jettySize=auto;html=1;exitX=1;exitY=0.5;exitDx=0;exitDy=0;" edge="1" parent="1" source="F2ssdvDsy-PUlEqvDiPP-47">
          <mxGeometry relative="1" as="geometry">
            <mxPoint x="240" y="1050" as="targetPoint" />
          </mxGeometry>
        </mxCell>
        <mxCell id="F2ssdvDsy-PUlEqvDiPP-47" value="Подтвердить бронь" style="rounded=0;whiteSpace=wrap;html=1;" vertex="1" parent="1">
          <mxGeometry x="-46" y="1020.25" width="120" height="60" as="geometry" />
        </mxCell>
        <mxCell id="F2ssdvDsy-PUlEqvDiPP-52" value="Активная бронь" style="text;html=1;align=center;verticalAlign=middle;whiteSpace=wrap;rounded=0;" vertex="1" parent="1">
          <mxGeometry x="114" y="1010" width="110" height="30" as="geometry" />
        </mxCell>
        <mxCell id="F2ssdvDsy-PUlEqvDiPP-53" style="edgeStyle=orthogonalEdgeStyle;rounded=0;orthogonalLoop=1;jettySize=auto;html=1;exitX=0;exitY=0.5;exitDx=0;exitDy=0;" edge="1" parent="1">
          <mxGeometry relative="1" as="geometry">
            <mxPoint x="-707.5" y="779.5" as="targetPoint" />
            <mxPoint x="-707.5" y="779.5" as="sourcePoint" />
          </mxGeometry>
        </mxCell>
        <mxCell id="F2ssdvDsy-PUlEqvDiPP-57" value="Информация от арендодателя" style="text;html=1;align=center;verticalAlign=middle;whiteSpace=wrap;rounded=0;" vertex="1" parent="1">
          <mxGeometry x="-476" y="860" width="110" height="40" as="geometry" />
        </mxCell>
        <mxCell id="F2ssdvDsy-PUlEqvDiPP-60" value="Данные клиента" style="text;html=1;align=center;verticalAlign=middle;whiteSpace=wrap;rounded=0;" vertex="1" parent="1">
          <mxGeometry x="-640" y="770.25" width="110" height="40" as="geometry" />
        </mxCell>
        <mxCell id="F2ssdvDsy-PUlEqvDiPP-61" value="Информация о бронировании" style="text;html=1;align=center;verticalAlign=middle;whiteSpace=wrap;rounded=0;" vertex="1" parent="1">
          <mxGeometry x="-316" y="940.25" width="110" height="40" as="geometry" />
        </mxCell>
        <mxCell id="F2ssdvDsy-PUlEqvDiPP-63" value="Оплаченный заказ" style="text;html=1;align=center;verticalAlign=middle;whiteSpace=wrap;rounded=0;" vertex="1" parent="1">
          <mxGeometry x="-156" y="1000.25" width="110" height="40" as="geometry" />
        </mxCell>
        <mxCell id="F2ssdvDsy-PUlEqvDiPP-95" value="Форма регистрации" style="text;html=1;align=center;verticalAlign=middle;whiteSpace=wrap;rounded=0;" vertex="1" parent="1">
          <mxGeometry x="-706" y="570" width="130" height="30" as="geometry" />
        </mxCell>
        <mxCell id="F2ssdvDsy-PUlEqvDiPP-96" value="Требования&lt;br&gt;арендодателя" style="text;html=1;align=center;verticalAlign=middle;whiteSpace=wrap;rounded=0;" vertex="1" parent="1">
          <mxGeometry x="-576" y="600" width="130" height="30" as="geometry" />
        </mxCell>
        <mxCell id="F2ssdvDsy-PUlEqvDiPP-97" value="Внутренние правила&lt;br&gt;гостиницы" style="text;html=1;align=center;verticalAlign=middle;whiteSpace=wrap;rounded=0;" vertex="1" parent="1">
          <mxGeometry x="-480" y="650" width="130" height="30" as="geometry" />
        </mxCell>
        <mxCell id="F2ssdvDsy-PUlEqvDiPP-100" style="edgeStyle=orthogonalEdgeStyle;rounded=0;orthogonalLoop=1;jettySize=auto;html=1;exitX=0.25;exitY=0;exitDx=0;exitDy=0;" edge="1" parent="1">
          <mxGeometry relative="1" as="geometry">
            <mxPoint x="-438" y="790.25" as="targetPoint" />
            <mxPoint x="-438" y="690" as="sourcePoint" />
            <Array as="points">
              <mxPoint x="-438" y="710" />
              <mxPoint x="-438" y="710" />
            </Array>
          </mxGeometry>
        </mxCell>
        <mxCell id="F2ssdvDsy-PUlEqvDiPP-101" style="edgeStyle=orthogonalEdgeStyle;rounded=0;orthogonalLoop=1;jettySize=auto;html=1;" edge="1" parent="1">
          <mxGeometry relative="1" as="geometry">
            <mxPoint x="-510" y="790.25" as="targetPoint" />
            <mxPoint x="-510" y="640" as="sourcePoint" />
            <Array as="points">
              <mxPoint x="-510" y="710" />
              <mxPoint x="-510" y="710" />
            </Array>
          </mxGeometry>
        </mxCell>
        <mxCell id="F2ssdvDsy-PUlEqvDiPP-102" style="edgeStyle=orthogonalEdgeStyle;rounded=0;orthogonalLoop=1;jettySize=auto;html=1;exitX=0.25;exitY=0;exitDx=0;exitDy=0;" edge="1" parent="1">
          <mxGeometry relative="1" as="geometry">
            <mxPoint x="-110" y="940.25" as="targetPoint" />
            <mxPoint x="-110" y="840" as="sourcePoint" />
            <Array as="points">
              <mxPoint x="-110" y="860" />
              <mxPoint x="-110" y="860" />
            </Array>
          </mxGeometry>
        </mxCell>
        <mxCell id="F2ssdvDsy-PUlEqvDiPP-103" value="Законы страны&lt;br&gt;пребывания" style="text;html=1;align=center;verticalAlign=middle;whiteSpace=wrap;rounded=0;" vertex="1" parent="1">
          <mxGeometry x="-170" y="805.25" width="130" height="30" as="geometry" />
        </mxCell>
        <mxCell id="F2ssdvDsy-PUlEqvDiPP-104" style="edgeStyle=orthogonalEdgeStyle;rounded=0;orthogonalLoop=1;jettySize=auto;html=1;" edge="1" parent="1">
          <mxGeometry relative="1" as="geometry">
            <mxPoint x="-175.5" y="940.25" as="targetPoint" />
            <mxPoint x="-175.5" y="790" as="sourcePoint" />
            <Array as="points">
              <mxPoint x="-175.5" y="860" />
              <mxPoint x="-175.5" y="860" />
            </Array>
          </mxGeometry>
        </mxCell>
        <mxCell id="F2ssdvDsy-PUlEqvDiPP-105" value="Бухгалтерский&lt;br&gt;учет" style="text;html=1;align=center;verticalAlign=middle;whiteSpace=wrap;rounded=0;" vertex="1" parent="1">
          <mxGeometry x="-240" y="740.25" width="130" height="30" as="geometry" />
        </mxCell>
        <mxCell id="F2ssdvDsy-PUlEqvDiPP-107" style="edgeStyle=orthogonalEdgeStyle;rounded=0;orthogonalLoop=1;jettySize=auto;html=1;exitX=0.25;exitY=0;exitDx=0;exitDy=0;" edge="1" parent="1">
          <mxGeometry relative="1" as="geometry">
            <mxPoint x="-338.5" y="870.5" as="targetPoint" />
            <mxPoint x="-338.5" y="770.25" as="sourcePoint" />
            <Array as="points">
              <mxPoint x="-338.5" y="790.25" />
              <mxPoint x="-338.5" y="790.25" />
            </Array>
          </mxGeometry>
        </mxCell>
        <mxCell id="F2ssdvDsy-PUlEqvDiPP-108" value="Форма&lt;br&gt;бронирования" style="text;html=1;align=center;verticalAlign=middle;whiteSpace=wrap;rounded=0;" vertex="1" parent="1">
          <mxGeometry x="-384.5" y="725.25" width="93" height="30" as="geometry" />
        </mxCell>
        <mxCell id="F2ssdvDsy-PUlEqvDiPP-110" style="edgeStyle=orthogonalEdgeStyle;rounded=0;orthogonalLoop=1;jettySize=auto;html=1;" edge="1" parent="1">
          <mxGeometry relative="1" as="geometry">
            <mxPoint x="-264" y="870.25" as="targetPoint" />
            <mxPoint x="-264" y="720" as="sourcePoint" />
            <Array as="points">
              <mxPoint x="-264" y="790" />
              <mxPoint x="-264" y="790" />
            </Array>
          </mxGeometry>
        </mxCell>
        <mxCell id="F2ssdvDsy-PUlEqvDiPP-111" value="Правила&lt;br&gt;бронирования" style="text;html=1;align=center;verticalAlign=middle;whiteSpace=wrap;rounded=0;" vertex="1" parent="1">
          <mxGeometry x="-307.5" y="680" width="93" height="30" as="geometry" />
        </mxCell>
        <mxCell id="F2ssdvDsy-PUlEqvDiPP-112" style="edgeStyle=orthogonalEdgeStyle;rounded=0;orthogonalLoop=1;jettySize=auto;html=1;exitX=0.25;exitY=0;exitDx=0;exitDy=0;" edge="1" parent="1">
          <mxGeometry relative="1" as="geometry">
            <mxPoint x="13.5" y="1020" as="targetPoint" />
            <mxPoint x="13.5" y="919.75" as="sourcePoint" />
            <Array as="points">
              <mxPoint x="13.5" y="939.75" />
              <mxPoint x="13.5" y="939.75" />
            </Array>
          </mxGeometry>
        </mxCell>
        <mxCell id="F2ssdvDsy-PUlEqvDiPP-113" value="Бланк подтверждения&lt;br&gt;бронирования" style="text;html=1;align=center;verticalAlign=middle;whiteSpace=wrap;rounded=0;" vertex="1" parent="1">
          <mxGeometry x="-51" y="880" width="130" height="30" as="geometry" />
        </mxCell>
        <mxCell id="F2ssdvDsy-PUlEqvDiPP-116" style="edgeStyle=orthogonalEdgeStyle;rounded=0;orthogonalLoop=1;jettySize=auto;html=1;exitX=0.25;exitY=1;exitDx=0;exitDy=0;" edge="1" parent="1">
          <mxGeometry relative="1" as="geometry">
            <mxPoint x="-650" y="770.5" as="targetPoint" />
            <mxPoint x="-650" y="1040.25" as="sourcePoint" />
          </mxGeometry>
        </mxCell>
        <mxCell id="F2ssdvDsy-PUlEqvDiPP-117" value="Клиент" style="text;html=1;align=center;verticalAlign=middle;whiteSpace=wrap;rounded=0;" vertex="1" parent="1">
          <mxGeometry x="-770" y="1040.25" width="100" height="30" as="geometry" />
        </mxCell>
        <mxCell id="F2ssdvDsy-PUlEqvDiPP-118" value="Сайт" style="text;html=1;align=center;verticalAlign=middle;whiteSpace=wrap;rounded=0;" vertex="1" parent="1">
          <mxGeometry x="-670" y="1040.25" width="100" height="30" as="geometry" />
        </mxCell>
        <mxCell id="F2ssdvDsy-PUlEqvDiPP-119" style="edgeStyle=orthogonalEdgeStyle;rounded=0;orthogonalLoop=1;jettySize=auto;html=1;exitX=0.5;exitY=0;exitDx=0;exitDy=0;" edge="1" parent="1">
          <mxGeometry relative="1" as="geometry">
            <mxPoint x="-307" y="150" as="targetPoint" />
            <mxPoint x="-307" y="360" as="sourcePoint" />
          </mxGeometry>
        </mxCell>
        <mxCell id="F2ssdvDsy-PUlEqvDiPP-120" value="Сайт" style="text;html=1;align=center;verticalAlign=middle;whiteSpace=wrap;rounded=0;flipV=0;flipH=1;rotation=-90;" vertex="1" parent="1">
          <mxGeometry x="-400" y="240" width="150" height="30" as="geometry" />
        </mxCell>
        <mxCell id="F2ssdvDsy-PUlEqvDiPP-121" style="edgeStyle=orthogonalEdgeStyle;rounded=0;orthogonalLoop=1;jettySize=auto;html=1;exitX=0.5;exitY=0;exitDx=0;exitDy=0;" edge="1" parent="1">
          <mxGeometry relative="1" as="geometry">
            <mxPoint x="-357.5" y="-100" as="targetPoint" />
            <mxPoint x="-357.5" y="-310" as="sourcePoint" />
          </mxGeometry>
        </mxCell>
        <mxCell id="F2ssdvDsy-PUlEqvDiPP-122" value="Бухгалтерский учет" style="text;html=1;align=center;verticalAlign=middle;whiteSpace=wrap;rounded=0;flipV=0;flipH=1;rotation=-90;" vertex="1" parent="1">
          <mxGeometry x="-457.5" y="-220" width="150" height="30" as="geometry" />
        </mxCell>
        <mxCell id="F2ssdvDsy-PUlEqvDiPP-123" style="edgeStyle=orthogonalEdgeStyle;rounded=0;orthogonalLoop=1;jettySize=auto;html=1;exitX=0.5;exitY=0;exitDx=0;exitDy=0;" edge="1" parent="1">
          <mxGeometry relative="1" as="geometry">
            <mxPoint x="-300" y="-100" as="targetPoint" />
            <mxPoint x="-300" y="-310" as="sourcePoint" />
          </mxGeometry>
        </mxCell>
        <mxCell id="F2ssdvDsy-PUlEqvDiPP-124" value="Бланки подтверждения" style="text;html=1;align=center;verticalAlign=middle;whiteSpace=wrap;rounded=0;flipV=0;flipH=1;rotation=-90;" vertex="1" parent="1">
          <mxGeometry x="-400" y="-220" width="150" height="30" as="geometry" />
        </mxCell>
        <mxCell id="F2ssdvDsy-PUlEqvDiPP-125" style="edgeStyle=orthogonalEdgeStyle;rounded=0;orthogonalLoop=1;jettySize=auto;html=1;exitX=0.25;exitY=1;exitDx=0;exitDy=0;" edge="1" parent="1">
          <mxGeometry relative="1" as="geometry">
            <mxPoint x="-511.5" y="850.25" as="targetPoint" />
            <mxPoint x="-511.5" y="1120" as="sourcePoint" />
          </mxGeometry>
        </mxCell>
        <mxCell id="F2ssdvDsy-PUlEqvDiPP-126" value="Клиент" style="text;html=1;align=center;verticalAlign=middle;whiteSpace=wrap;rounded=0;" vertex="1" parent="1">
          <mxGeometry x="-586" y="1149" width="100" height="30" as="geometry" />
        </mxCell>
        <mxCell id="F2ssdvDsy-PUlEqvDiPP-127" style="edgeStyle=orthogonalEdgeStyle;rounded=0;orthogonalLoop=1;jettySize=auto;html=1;exitX=0.25;exitY=1;exitDx=0;exitDy=0;" edge="1" parent="1">
          <mxGeometry relative="1" as="geometry">
            <mxPoint x="-435.5" y="850.25" as="targetPoint" />
            <mxPoint x="-435.5" y="1120" as="sourcePoint" />
          </mxGeometry>
        </mxCell>
        <mxCell id="F2ssdvDsy-PUlEqvDiPP-128" value="Арендодатель" style="text;html=1;align=center;verticalAlign=middle;whiteSpace=wrap;rounded=0;" vertex="1" parent="1">
          <mxGeometry x="-480" y="1149" width="100" height="30" as="geometry" />
        </mxCell>
        <mxCell id="F2ssdvDsy-PUlEqvDiPP-129" style="edgeStyle=orthogonalEdgeStyle;rounded=0;orthogonalLoop=1;jettySize=auto;html=1;exitX=0.25;exitY=1;exitDx=0;exitDy=0;" edge="1" parent="1">
          <mxGeometry relative="1" as="geometry">
            <mxPoint x="-350" y="930.25" as="targetPoint" />
            <mxPoint x="-350" y="1200" as="sourcePoint" />
          </mxGeometry>
        </mxCell>
        <mxCell id="F2ssdvDsy-PUlEqvDiPP-130" style="edgeStyle=orthogonalEdgeStyle;rounded=0;orthogonalLoop=1;jettySize=auto;html=1;exitX=0.25;exitY=1;exitDx=0;exitDy=0;" edge="1" parent="1">
          <mxGeometry relative="1" as="geometry">
            <mxPoint x="-307.5" y="930.25" as="targetPoint" />
            <mxPoint x="-307.5" y="1200" as="sourcePoint" />
          </mxGeometry>
        </mxCell>
        <mxCell id="F2ssdvDsy-PUlEqvDiPP-131" style="edgeStyle=orthogonalEdgeStyle;rounded=0;orthogonalLoop=1;jettySize=auto;html=1;exitX=0.25;exitY=1;exitDx=0;exitDy=0;" edge="1" parent="1">
          <mxGeometry relative="1" as="geometry">
            <mxPoint x="-270" y="930.25" as="targetPoint" />
            <mxPoint x="-270" y="1200" as="sourcePoint" />
          </mxGeometry>
        </mxCell>
        <mxCell id="F2ssdvDsy-PUlEqvDiPP-132" value="Клиент" style="text;html=1;align=center;verticalAlign=middle;whiteSpace=wrap;rounded=0;" vertex="1" parent="1">
          <mxGeometry x="-407.5" y="1210" width="100" height="30" as="geometry" />
        </mxCell>
        <mxCell id="F2ssdvDsy-PUlEqvDiPP-133" value="Администратор" style="text;html=1;align=center;verticalAlign=middle;whiteSpace=wrap;rounded=0;" vertex="1" parent="1">
          <mxGeometry x="-375" y="1240" width="100" height="30" as="geometry" />
        </mxCell>
        <mxCell id="F2ssdvDsy-PUlEqvDiPP-134" value="Сайт" style="text;html=1;align=center;verticalAlign=middle;whiteSpace=wrap;rounded=0;" vertex="1" parent="1">
          <mxGeometry x="-306" y="1210" width="100" height="30" as="geometry" />
        </mxCell>
        <mxCell id="F2ssdvDsy-PUlEqvDiPP-135" style="edgeStyle=orthogonalEdgeStyle;rounded=0;orthogonalLoop=1;jettySize=auto;html=1;exitX=0.25;exitY=1;exitDx=0;exitDy=0;" edge="1" parent="1">
          <mxGeometry relative="1" as="geometry">
            <mxPoint x="-190" y="1000.25" as="targetPoint" />
            <mxPoint x="-190" y="1270" as="sourcePoint" />
          </mxGeometry>
        </mxCell>
        <mxCell id="F2ssdvDsy-PUlEqvDiPP-136" style="edgeStyle=orthogonalEdgeStyle;rounded=0;orthogonalLoop=1;jettySize=auto;html=1;exitX=0.25;exitY=1;exitDx=0;exitDy=0;" edge="1" parent="1">
          <mxGeometry relative="1" as="geometry">
            <mxPoint x="-146.5" y="1000.25" as="targetPoint" />
            <mxPoint x="-146.5" y="1270" as="sourcePoint" />
          </mxGeometry>
        </mxCell>
        <mxCell id="F2ssdvDsy-PUlEqvDiPP-137" style="edgeStyle=orthogonalEdgeStyle;rounded=0;orthogonalLoop=1;jettySize=auto;html=1;exitX=0.25;exitY=1;exitDx=0;exitDy=0;" edge="1" parent="1">
          <mxGeometry relative="1" as="geometry">
            <mxPoint x="-110" y="1000.25" as="targetPoint" />
            <mxPoint x="-110" y="1270" as="sourcePoint" />
          </mxGeometry>
        </mxCell>
        <mxCell id="F2ssdvDsy-PUlEqvDiPP-138" value="Клиент" style="text;html=1;align=center;verticalAlign=middle;whiteSpace=wrap;rounded=0;" vertex="1" parent="1">
          <mxGeometry x="-240" y="1280" width="100" height="30" as="geometry" />
        </mxCell>
        <mxCell id="F2ssdvDsy-PUlEqvDiPP-139" value="Банк" style="text;html=1;align=center;verticalAlign=middle;whiteSpace=wrap;rounded=0;" vertex="1" parent="1">
          <mxGeometry x="-160" y="1280" width="100" height="30" as="geometry" />
        </mxCell>
        <mxCell id="F2ssdvDsy-PUlEqvDiPP-140" value="Бухгалтерия" style="text;html=1;align=center;verticalAlign=middle;whiteSpace=wrap;rounded=0;" vertex="1" parent="1">
          <mxGeometry x="-210" y="1320" width="100" height="30" as="geometry" />
        </mxCell>
        <mxCell id="F2ssdvDsy-PUlEqvDiPP-141" style="edgeStyle=orthogonalEdgeStyle;rounded=0;orthogonalLoop=1;jettySize=auto;html=1;exitX=0.25;exitY=1;exitDx=0;exitDy=0;" edge="1" parent="1">
          <mxGeometry relative="1" as="geometry">
            <mxPoint x="-20" y="1080.25" as="targetPoint" />
            <mxPoint x="-20" y="1350" as="sourcePoint" />
          </mxGeometry>
        </mxCell>
        <mxCell id="F2ssdvDsy-PUlEqvDiPP-142" style="edgeStyle=orthogonalEdgeStyle;rounded=0;orthogonalLoop=1;jettySize=auto;html=1;exitX=0.25;exitY=1;exitDx=0;exitDy=0;" edge="1" parent="1">
          <mxGeometry relative="1" as="geometry">
            <mxPoint x="40" y="1080.25" as="targetPoint" />
            <mxPoint x="40" y="1350" as="sourcePoint" />
          </mxGeometry>
        </mxCell>
        <mxCell id="F2ssdvDsy-PUlEqvDiPP-143" value="Клиент" style="text;html=1;align=center;verticalAlign=middle;whiteSpace=wrap;rounded=0;" vertex="1" parent="1">
          <mxGeometry x="-110" y="1360" width="100" height="30" as="geometry" />
        </mxCell>
        <mxCell id="F2ssdvDsy-PUlEqvDiPP-144" value="Администратор" style="text;html=1;align=center;verticalAlign=middle;whiteSpace=wrap;rounded=0;" vertex="1" parent="1">
          <mxGeometry x="10" y="1360" width="100" height="30" as="geometry" />
        </mxCell>
        <mxCell id="F2ssdvDsy-PUlEqvDiPP-160" style="edgeStyle=orthogonalEdgeStyle;rounded=0;orthogonalLoop=1;jettySize=auto;html=1;exitX=0.5;exitY=0.5;exitDx=0;exitDy=0;exitPerimeter=0;entryX=0;entryY=0;entryDx=0;entryDy=0;" edge="1" parent="1" source="F2ssdvDsy-PUlEqvDiPP-145" target="F2ssdvDsy-PUlEqvDiPP-159">
          <mxGeometry relative="1" as="geometry" />
        </mxCell>
        <mxCell id="F2ssdvDsy-PUlEqvDiPP-163" style="edgeStyle=orthogonalEdgeStyle;rounded=0;orthogonalLoop=1;jettySize=auto;html=1;exitX=0.5;exitY=0;exitDx=0;exitDy=0;exitPerimeter=0;entryX=0;entryY=0.5;entryDx=0;entryDy=0;" edge="1" parent="1" source="F2ssdvDsy-PUlEqvDiPP-145" target="F2ssdvDsy-PUlEqvDiPP-153">
          <mxGeometry relative="1" as="geometry" />
        </mxCell>
        <mxCell id="F2ssdvDsy-PUlEqvDiPP-170" style="edgeStyle=orthogonalEdgeStyle;rounded=0;orthogonalLoop=1;jettySize=auto;html=1;exitX=0.25;exitY=0.1;exitDx=0;exitDy=0;exitPerimeter=0;entryX=1;entryY=1;entryDx=0;entryDy=0;" edge="1" parent="1" source="F2ssdvDsy-PUlEqvDiPP-145" target="F2ssdvDsy-PUlEqvDiPP-169">
          <mxGeometry relative="1" as="geometry" />
        </mxCell>
        <mxCell id="F2ssdvDsy-PUlEqvDiPP-172" style="edgeStyle=orthogonalEdgeStyle;rounded=0;orthogonalLoop=1;jettySize=auto;html=1;exitX=0;exitY=0.3333333333333333;exitDx=0;exitDy=0;exitPerimeter=0;entryX=1;entryY=0;entryDx=0;entryDy=0;" edge="1" parent="1" source="F2ssdvDsy-PUlEqvDiPP-145" target="F2ssdvDsy-PUlEqvDiPP-171">
          <mxGeometry relative="1" as="geometry" />
        </mxCell>
        <mxCell id="F2ssdvDsy-PUlEqvDiPP-145" value="Администратор" style="shape=umlActor;verticalLabelPosition=bottom;verticalAlign=top;html=1;" vertex="1" parent="1">
          <mxGeometry x="-661" y="1610" width="30" height="60" as="geometry" />
        </mxCell>
        <mxCell id="F2ssdvDsy-PUlEqvDiPP-152" style="edgeStyle=orthogonalEdgeStyle;rounded=0;orthogonalLoop=1;jettySize=auto;html=1;exitX=1;exitY=1;exitDx=0;exitDy=0;exitPerimeter=0;entryX=0.5;entryY=1;entryDx=0;entryDy=0;" edge="1" parent="1" source="F2ssdvDsy-PUlEqvDiPP-146" target="F2ssdvDsy-PUlEqvDiPP-149">
          <mxGeometry relative="1" as="geometry" />
        </mxCell>
        <mxCell id="F2ssdvDsy-PUlEqvDiPP-158" style="edgeStyle=orthogonalEdgeStyle;rounded=0;orthogonalLoop=1;jettySize=auto;html=1;exitX=0;exitY=0.3333333333333333;exitDx=0;exitDy=0;exitPerimeter=0;entryX=0.5;entryY=1;entryDx=0;entryDy=0;" edge="1" parent="1" source="F2ssdvDsy-PUlEqvDiPP-146" target="F2ssdvDsy-PUlEqvDiPP-157">
          <mxGeometry relative="1" as="geometry" />
        </mxCell>
        <mxCell id="F2ssdvDsy-PUlEqvDiPP-168" style="edgeStyle=orthogonalEdgeStyle;rounded=0;orthogonalLoop=1;jettySize=auto;html=1;exitX=0.75;exitY=0.1;exitDx=0;exitDy=0;exitPerimeter=0;entryX=0;entryY=1;entryDx=0;entryDy=0;" edge="1" parent="1" source="F2ssdvDsy-PUlEqvDiPP-146" target="F2ssdvDsy-PUlEqvDiPP-164">
          <mxGeometry relative="1" as="geometry">
            <Array as="points">
              <mxPoint x="-410" y="1866" />
              <mxPoint x="-410" y="1641" />
            </Array>
          </mxGeometry>
        </mxCell>
        <mxCell id="F2ssdvDsy-PUlEqvDiPP-146" value="Клиент" style="shape=umlActor;verticalLabelPosition=bottom;verticalAlign=top;html=1;" vertex="1" parent="1">
          <mxGeometry x="-480" y="1860" width="30" height="60" as="geometry" />
        </mxCell>
        <mxCell id="F2ssdvDsy-PUlEqvDiPP-151" style="edgeStyle=orthogonalEdgeStyle;rounded=0;orthogonalLoop=1;jettySize=auto;html=1;exitX=0;exitY=0.3333333333333333;exitDx=0;exitDy=0;exitPerimeter=0;entryX=1;entryY=0;entryDx=0;entryDy=0;" edge="1" parent="1" source="F2ssdvDsy-PUlEqvDiPP-147" target="F2ssdvDsy-PUlEqvDiPP-149">
          <mxGeometry relative="1" as="geometry" />
        </mxCell>
        <mxCell id="F2ssdvDsy-PUlEqvDiPP-167" style="edgeStyle=orthogonalEdgeStyle;rounded=0;orthogonalLoop=1;jettySize=auto;html=1;exitX=0.5;exitY=0;exitDx=0;exitDy=0;exitPerimeter=0;entryX=1;entryY=0.5;entryDx=0;entryDy=0;" edge="1" parent="1" source="F2ssdvDsy-PUlEqvDiPP-147" target="F2ssdvDsy-PUlEqvDiPP-164">
          <mxGeometry relative="1" as="geometry" />
        </mxCell>
        <mxCell id="F2ssdvDsy-PUlEqvDiPP-147" value="Арендодатель" style="shape=umlActor;verticalLabelPosition=bottom;verticalAlign=top;html=1;" vertex="1" parent="1">
          <mxGeometry x="-150" y="1670" width="30" height="60" as="geometry" />
        </mxCell>
        <mxCell id="F2ssdvDsy-PUlEqvDiPP-149" value="Отмена&lt;br&gt;бронирования" style="ellipse;whiteSpace=wrap;html=1;" vertex="1" parent="1">
          <mxGeometry x="-380" y="1770" width="110" height="60" as="geometry" />
        </mxCell>
        <mxCell id="F2ssdvDsy-PUlEqvDiPP-155" style="edgeStyle=orthogonalEdgeStyle;rounded=0;orthogonalLoop=1;jettySize=auto;html=1;exitX=0.5;exitY=0;exitDx=0;exitDy=0;entryX=0;entryY=0.5;entryDx=0;entryDy=0;dashed=1;" edge="1" parent="1" source="F2ssdvDsy-PUlEqvDiPP-153" target="F2ssdvDsy-PUlEqvDiPP-154">
          <mxGeometry relative="1" as="geometry" />
        </mxCell>
        <mxCell id="F2ssdvDsy-PUlEqvDiPP-156" value="&#39;&#39;Extend&quot;" style="edgeLabel;html=1;align=center;verticalAlign=middle;resizable=0;points=[];" vertex="1" connectable="0" parent="F2ssdvDsy-PUlEqvDiPP-155">
          <mxGeometry x="0.0142" y="2" relative="1" as="geometry">
            <mxPoint as="offset" />
          </mxGeometry>
        </mxCell>
        <mxCell id="F2ssdvDsy-PUlEqvDiPP-153" value="Подтверждение&amp;nbsp;&lt;br&gt;отмены" style="ellipse;whiteSpace=wrap;html=1;" vertex="1" parent="1">
          <mxGeometry x="-606" y="1500" width="110" height="60" as="geometry" />
        </mxCell>
        <mxCell id="F2ssdvDsy-PUlEqvDiPP-165" style="edgeStyle=orthogonalEdgeStyle;rounded=0;orthogonalLoop=1;jettySize=auto;html=1;exitX=1;exitY=1;exitDx=0;exitDy=0;entryX=0.5;entryY=0;entryDx=0;entryDy=0;dashed=1;" edge="1" parent="1" source="F2ssdvDsy-PUlEqvDiPP-154" target="F2ssdvDsy-PUlEqvDiPP-164">
          <mxGeometry relative="1" as="geometry" />
        </mxCell>
        <mxCell id="F2ssdvDsy-PUlEqvDiPP-166" value="&#39;&#39;Extend&#39;" style="edgeLabel;html=1;align=center;verticalAlign=middle;resizable=0;points=[];" vertex="1" connectable="0" parent="F2ssdvDsy-PUlEqvDiPP-165">
          <mxGeometry x="-0.2937" y="-1" relative="1" as="geometry">
            <mxPoint as="offset" />
          </mxGeometry>
        </mxCell>
        <mxCell id="F2ssdvDsy-PUlEqvDiPP-154" value="Штрафные санкции" style="ellipse;whiteSpace=wrap;html=1;" vertex="1" parent="1">
          <mxGeometry x="-466" y="1400" width="110" height="60" as="geometry" />
        </mxCell>
        <mxCell id="F2ssdvDsy-PUlEqvDiPP-157" value="Получить&lt;br&gt;аванс" style="ellipse;whiteSpace=wrap;html=1;" vertex="1" parent="1">
          <mxGeometry x="-661" y="1790" width="110" height="60" as="geometry" />
        </mxCell>
        <mxCell id="F2ssdvDsy-PUlEqvDiPP-161" style="edgeStyle=orthogonalEdgeStyle;rounded=0;orthogonalLoop=1;jettySize=auto;html=1;exitX=0;exitY=1;exitDx=0;exitDy=0;entryX=0.5;entryY=0;entryDx=0;entryDy=0;dashed=1;" edge="1" parent="1" source="F2ssdvDsy-PUlEqvDiPP-159" target="F2ssdvDsy-PUlEqvDiPP-157">
          <mxGeometry relative="1" as="geometry" />
        </mxCell>
        <mxCell id="F2ssdvDsy-PUlEqvDiPP-162" value="&#39;&#39;Extend&#39;" style="edgeLabel;html=1;align=center;verticalAlign=middle;resizable=0;points=[];" vertex="1" connectable="0" parent="F2ssdvDsy-PUlEqvDiPP-161">
          <mxGeometry x="-0.1087" y="-1" relative="1" as="geometry">
            <mxPoint as="offset" />
          </mxGeometry>
        </mxCell>
        <mxCell id="F2ssdvDsy-PUlEqvDiPP-159" value="Вернуть деньги" style="ellipse;whiteSpace=wrap;html=1;" vertex="1" parent="1">
          <mxGeometry x="-586" y="1680" width="110" height="60" as="geometry" />
        </mxCell>
        <mxCell id="F2ssdvDsy-PUlEqvDiPP-164" value="Получить&lt;br&gt;штраф" style="ellipse;whiteSpace=wrap;html=1;" vertex="1" parent="1">
          <mxGeometry x="-400" y="1590" width="110" height="60" as="geometry" />
        </mxCell>
        <mxCell id="F2ssdvDsy-PUlEqvDiPP-169" value="Подготовка&lt;br&gt;документов&lt;br&gt;на отмену" style="ellipse;whiteSpace=wrap;html=1;" vertex="1" parent="1">
          <mxGeometry x="-840" y="1500" width="110" height="60" as="geometry" />
        </mxCell>
        <mxCell id="F2ssdvDsy-PUlEqvDiPP-171" value="Проверка статуса&lt;br&gt;бронирования" style="ellipse;whiteSpace=wrap;html=1;" vertex="1" parent="1">
          <mxGeometry x="-890" y="1700" width="110" height="60" as="geometry" />
        </mxCell>
      </root>
    </mxGraphModel>
  </diagram>
</mxfile>
